<?xml version="1.0" standalone="no"?>
<!DOCTYPE svg PUBLIC "-//W3C//DTD SVG 20010904//EN"
 "http://www.w3.org/TR/2001/REC-SVG-20010904/DTD/svg10.dtd">
<svg version="1.0" xmlns="http://www.w3.org/2000/svg"
 width="500.000000pt" height="500.000000pt" viewBox="0 0 500.000000 500.000000"
 preserveAspectRatio="xMidYMid meet">
<metadata>
Created by potrace 1.14, written by Peter Selinger 2001-2017
</metadata>
<g transform="translate(0.000000,500.000000) scale(0.100000,-0.100000)"
fill="#000000" stroke="none">
<path d="M530 2525 l0 -1925 1975 0 1975 0 0 210 0 210 -25 0 -25 0 0 -185 0
-185 -1925 0 -1925 0 0 1880 0 1880 1925 0 1925 0 0 -180 0 -180 25 0 25 0 0
200 0 200 -1975 0 -1975 0 0 -1925z"/>
<path d="M2341 3617 c-20 -53 -71 -414 -87 -611 -7 -88 -7 -89 -21 -55 -27 64
-88 110 -166 124 -21 4 -37 11 -35 14 2 4 27 54 56 112 79 156 85 240 20 294
-30 26 -37 27 -110 23 -68 -4 -90 -11 -171 -51 -174 -87 -320 -226 -434 -415
-29 -48 -53 -92 -53 -99 0 -16 35 -34 52 -28 7 3 31 36 52 73 118 202 318 381
487 433 33 10 74 19 89 19 95 0 73 -126 -56 -319 -39 -58 -50 -69 -101 -88
-103 -41 -203 -133 -203 -188 0 -35 33 -58 72 -51 38 7 136 84 191 150 38 46
39 46 100 46 116 0 165 -62 155 -197 -9 -126 -100 -259 -203 -298 -84 -33
-115 4 -79 95 19 48 13 70 -20 70 -51 0 -89 -132 -56 -194 29 -55 87 -68 179
-40 73 21 169 116 213 210 19 41 34 62 36 52 8 -41 72 -28 72 14 0 44 153 388
167 375 3 -4 0 -57 -6 -120 -13 -124 -9 -160 22 -194 34 -37 65 -29 124 32
l53 54 16 -36 c20 -42 67 -73 110 -73 54 0 134 50 220 137 l82 82 14 -42 c11
-35 18 -43 42 -45 38 -5 65 23 123 122 25 45 64 113 87 151 l41 70 6 -101 c6
-112 20 -147 64 -158 35 -9 76 15 127 74 28 33 51 50 66 50 42 0 89 28 160 94
58 55 71 63 76 49 4 -10 10 -76 13 -148 l5 -130 -43 -24 c-186 -102 -325 -244
-382 -389 -35 -89 -9 -185 63 -224 46 -25 147 -20 206 10 58 29 126 110 160
187 25 57 31 64 49 57 40 -14 139 -7 180 13 89 44 161 145 190 267 28 120 8
487 -31 545 -28 43 -51 29 -93 -54 -48 -96 -96 -163 -116 -163 -12 0 -14 8 -8
43 4 23 8 58 8 77 0 30 -4 35 -26 38 -32 4 -45 -22 -54 -105 -8 -68 4 -105 39
-128 24 -16 28 -16 63 2 21 10 59 45 86 78 26 33 51 61 56 63 10 3 21 -120 21
-229 l0 -77 -39 5 c-55 7 -130 -13 -196 -52 l-55 -34 0 67 c0 37 -5 123 -10
192 -16 209 -37 274 -84 269 -12 -1 -38 1 -59 6 -52 10 -116 -16 -162 -67 -40
-43 -74 -110 -75 -143 0 -22 -86 -136 -107 -143 -10 -3 -13 23 -13 105 0 131
-10 157 -61 161 -32 3 -41 -2 -76 -41 -21 -25 -69 -98 -106 -163 -76 -136 -78
-133 -51 53 14 92 15 115 4 128 -30 36 -56 3 -71 -90 -11 -69 -17 -82 -69
-148 -108 -136 -209 -217 -269 -217 -11 0 -28 12 -38 26 -17 26 -16 27 13 48
99 71 144 136 144 206 0 45 -27 80 -61 80 -47 0 -88 -40 -164 -163 -87 -139
-130 -195 -141 -184 -4 4 -2 70 4 146 14 148 9 181 -28 201 -41 22 -104 -38
-164 -157 -14 -29 -29 -53 -33 -53 -14 0 8 195 61 545 15 95 10 115 -25 115
-11 0 -23 -10 -28 -23z m1497 -308 c1 -9 -28 -44 -65 -80 -62 -59 -68 -62 -71
-41 -4 29 40 95 82 122 34 22 49 21 54 -1z m-993 -228 c-8 -26 -53 -81 -66
-81 -12 0 17 58 44 87 23 26 32 24 22 -6z m-1025 -134 c0 -2 -15 -13 -32 -26
l-33 -22 28 25 c26 24 37 31 37 23z m2462 -88 c-2 -13 -15 -46 -29 -74 -58
-118 -175 -185 -241 -139 -41 29 -22 95 44 154 42 37 86 57 159 76 62 15 71
13 67 -17z m-352 -26 c-1 -59 -30 -201 -56 -271 -55 -150 -195 -236 -278 -171
-22 17 -26 28 -26 71 0 69 46 153 132 240 64 65 190 157 216 158 7 0 12 -12
12 -27z"/>
<path d="M4462 3558 c-26 -26 1 -65 38 -53 32 10 20 65 -15 65 -6 0 -16 -5
-23 -12z"/>
<path d="M4432 3423 c-19 -35 -44 -223 -40 -297 3 -62 7 -79 27 -100 14 -14
34 -26 46 -26 58 0 135 92 219 259 42 83 44 116 7 116 -21 0 -35 -17 -87 -108
-35 -59 -77 -126 -95 -149 -32 -39 -33 -40 -43 -19 -6 15 -5 55 4 124 7 56 14
127 14 157 1 49 -1 55 -21 58 -13 2 -25 -4 -31 -15z"/>
<path d="M3042 2403 c-12 -22 -46 -215 -67 -378 -25 -195 -41 -519 -27 -550
17 -36 53 -31 65 10 34 113 129 331 161 370 17 19 17 18 11 -30 -3 -27 -8 -91
-12 -140 -6 -88 -5 -91 22 -123 40 -47 66 -43 130 23 48 48 54 52 60 35 11
-35 55 -78 86 -85 17 -4 50 -2 73 5 55 15 161 95 218 164 l46 55 5 -35 c8 -46
23 -64 54 -64 38 0 72 42 157 193 42 75 81 137 87 137 5 0 9 -36 9 -80 0 -207
100 -223 230 -38 28 39 50 75 50 79 0 10 -29 39 -40 39 -5 0 -36 -36 -70 -79
-93 -121 -100 -118 -100 43 0 114 -10 139 -54 139 -43 0 -96 -61 -172 -195
-37 -65 -71 -121 -76 -124 -4 -3 -6 8 -3 23 39 254 39 255 20 269 -34 25 -52
1 -67 -84 -11 -69 -18 -85 -70 -153 -135 -179 -277 -267 -310 -193 -11 23 -10
28 12 46 85 66 110 92 129 131 27 55 27 97 0 131 -46 59 -109 20 -199 -125
-88 -142 -131 -199 -148 -199 -11 0 -13 8 -8 38 11 64 19 248 12 275 -9 38
-39 51 -74 33 -34 -18 -68 -60 -116 -147 l-36 -64 0 50 c0 66 25 279 51 429
24 144 23 180 -8 184 -13 2 -25 -4 -31 -15z m508 -518 c0 -24 -56 -105 -72
-105 -14 0 -9 15 23 63 27 41 49 59 49 42z"/>
<path d="M2613 2376 c-120 -38 -233 -169 -233 -273 0 -33 7 -50 30 -77 37 -42
67 -52 190 -66 155 -17 199 -53 220 -178 24 -146 -47 -332 -179 -463 -94 -93
-152 -123 -239 -124 -61 0 -65 2 -99 39 -33 36 -35 41 -31 96 5 77 47 155 127
242 76 82 156 141 269 197 70 35 82 45 82 66 0 77 -207 -24 -368 -179 -200
-193 -243 -398 -106 -503 31 -23 49 -28 110 -31 94 -5 149 13 237 79 166 125
271 330 272 529 0 82 -4 103 -26 151 -47 99 -99 131 -249 150 -164 20 -193 46
-150 133 26 56 77 101 148 134 46 21 65 24 119 19 47 -3 67 -1 78 9 50 50 -91
84 -202 50z"/>
</g>
</svg>
